<svg xmlns="http://www.w3.org/2000/svg" width="512" height="512" viewBox="0 0 64 64" role="img" aria-label="GreenBite">
  <defs>
    <linearGradient id="g" x1="0" y1="0" x2="1" y2="1">
      <stop stop-color="#22c55e"></stop>
      <stop offset="1" stop-color="#0ea5e9"></stop>
    </linearGradient>
  </defs>
  <rect rx="12" width="64" height="64" fill="#ffffff"></rect>
  <g transform="translate(6,6)">
    <path d="M26 4c10 1 18 9 18 19 0 11-9 20-20 20S4 34 4 23C4 12 13 4 24 4h2z" fill="url(#g)"></path>
    <path d="M22 14c-2 8 2 14 10 16-6 3-14 1-18-4-4-5-3-12 1-16 3-3 7-4 11-3-2 1-3 3-4 7z" fill="#16a34a" opacity=".9"></path>
  </g>
</svg>
